<svg width="144" height="141" viewBox="0 0 144 141" fill="none" xmlns="http://www.w3.org/2000/svg">
<g id="supervisor_account_FILL0_wght400_GRAD0_opsz48 1">
<path id="Vector" d="M101.971 83.5833C98.0502 83.5833 94.7364 82.2298 92.0294 79.5227C89.3223 76.8157 87.9687 73.5018 87.9687 69.5813C87.9687 65.6607 89.3223 62.3468 92.0294 59.6398C94.7364 56.9327 98.0502 55.5792 101.971 55.5792C105.891 55.5792 109.205 56.9327 111.912 59.6398C114.619 62.3468 115.973 65.6607 115.973 69.5813C115.973 73.5018 114.619 76.8157 111.912 79.5227C109.205 82.2298 105.891 83.5833 101.971 83.5833ZM72.775 116.503V108.906C72.775 106.324 73.3212 104.115 74.4135 102.278C75.5059 100.44 77.0451 99.0254 79.0312 98.0323C82.7056 96.1455 86.4295 94.7552 90.2031 93.8615C93.9767 92.9677 97.8993 92.5208 101.971 92.5208C106.042 92.5208 109.965 92.9429 113.739 93.787C117.512 94.6311 121.236 96.0462 124.91 98.0323C126.897 98.926 128.436 100.316 129.528 102.203C130.62 104.09 131.167 106.324 131.167 108.906V116.503H72.775ZM59.6667 68.6875C53.1125 68.6875 47.75 66.6021 43.5792 62.4313C39.4083 58.2604 37.3229 52.8979 37.3229 46.3438C37.3229 39.7896 39.4083 34.4271 43.5792 30.2563C47.75 26.0854 53.1125 24 59.6667 24C66.2208 24 71.5833 26.0854 75.7542 30.2563C79.925 34.4271 82.0104 39.7896 82.0104 46.3438C82.0104 52.8979 79.925 58.2604 75.7542 62.4313C71.5833 66.6021 66.2208 68.6875 59.6667 68.6875ZM12 116.503V102.501C12 99.1247 12.8441 96.0214 14.5323 93.1911C16.2205 90.3609 18.7362 88.201 22.0796 86.7115C28.7661 83.7323 35.163 81.4979 41.2703 80.0083C47.3776 78.5188 53.4971 77.774 59.6287 77.774C62.8318 77.774 65.6746 77.9229 68.1573 78.2208C70.6399 78.5188 73.3212 78.9656 76.201 79.5615L72.4026 83.3599L68.6042 87.1583C67.3132 86.9597 65.9229 86.8356 64.4333 86.7859C62.9437 86.7363 61.3549 86.7115 59.6667 86.7115C54.0433 86.7115 48.5411 87.2825 43.16 88.4245C37.779 89.5665 31.9604 91.6767 25.7042 94.7552C24.3139 95.4503 23.1719 96.5427 22.2781 98.0323C21.3844 99.5219 20.9375 101.011 20.9375 102.501V107.566H63.8375V116.503H12ZM59.6667 59.75C63.5396 59.75 66.7422 58.4839 69.2745 55.9516C71.8068 53.4193 73.0729 50.2167 73.0729 46.3438C73.0729 42.4708 71.8068 39.2682 69.2745 36.7359C66.7422 34.2036 63.5396 32.9375 59.6667 32.9375C55.7937 32.9375 52.5911 34.2036 50.0589 36.7359C47.5266 39.2682 46.2604 42.4708 46.2604 46.3438C46.2604 50.2167 47.5266 53.4193 50.0589 55.9516C52.5911 58.4839 55.7937 59.75 59.6667 59.75Z" fill="white"/>
</g>
</svg>
